<?xml version="1.0" encoding="UTF-8"?> <svg xmlns="http://www.w3.org/2000/svg" xmlns:xlink="http://www.w3.org/1999/xlink" width="194px" height="23px" viewBox="0 0 194 23"> <!-- Generator: Sketch 58 (84663) - https://sketch.com --> <title>logo-PLAY-ARENA</title> <desc>Created with Sketch.</desc> <g id="Page-1" stroke="none" stroke-width="1" fill="none" fill-rule="evenodd"> <g id="Desktop-HD" transform="translate(-26.000000, -725.000000)" fill-rule="nonzero"> <g id="logo-PLAY-ARENA" transform="translate(26.000000, 723.000000)"> <g id="g10" transform="translate(97.000000, 13.000000) scale(-1, 1) rotate(-180.000000) translate(-97.000000, -13.000000) "> <g id="g14" transform="translate(0.000000, 0.285287)"> <g id="g16-Clipped" transform="translate(0.000000, 0.000000)"> <g id="g16" transform="translate(0.000000, 0.149694)"> <g id="g22" transform="translate(32.004038, 2.902942)" fill="#FFFFFF"> <path d="M6.38683112,8.13559302 C8.66852653,8.13559302 9.80910812,9.29789807 9.80910812,11.2737624 C9.80910812,13.2501692 8.66852653,14.4124742 6.38683112,14.4124742 L3.30731405,14.4124742 L3.30731405,8.13559302 L6.38683112,8.13559302 Z M6.15903414,17.3179657 C10.2652343,17.3179657 12.660296,15.4581691 12.660296,11.2737624 C12.660296,7.08935575 10.2652343,5.22955919 6.15903414,5.22955919 L3.30731405,5.22955919 L3.30731405,0.347661008 L0.455593953,0.347661008 L0.455593953,17.3179657 L6.15903414,17.3179657 Z" id="path24"></path> </g> <g id="g26" transform="translate(49.416615, 2.902129)" fill="#FFFFFF"> <polygon id="path28" points="10.6447185 3.25423721 10.6447185 0.348745754 0.150622767 0.348745754 0.150622767 17.3190504 3.00234286 17.3190504 3.00234286 3.25423721"></polygon> </g> <g id="g30" transform="translate(62.920026, 2.740068)" fill="#FFFFFF"> <path d="M10.6447185,8.13559302 C9.13902309,12.2966777 8.20388457,14.6446098 8.20388457,14.6446098 C8.20388457,14.6446098 7.26821381,12.2966777 5.76251837,8.13559302 L10.6447185,8.13559302 Z M13.3367678,0.510372869 C12.7204386,2.32352537 12.150414,3.973966 11.6256293,5.46169478 L4.80449371,5.46169478 C4.27970908,3.973966 3.68679826,2.32352537 3.07100129,0.510372869 L0.104850477,0.510372869 C3.82411513,11.3204065 6.49274607,17.4806775 6.49274607,17.4806775 L9.91449084,17.4806775 C9.91449084,17.4806775 12.6070724,11.3204065 16.3023864,0.510372869 L13.3367678,0.510372869 Z" id="path32"></path> </g> <g id="g34" transform="translate(79.541488, 2.865030)" fill="#FFFFFF"> <path d="M15.9670778,17.3559318 C12.7278899,11.3816946 9.48816986,6.42928797 9.48816986,6.42928797 L9.48816986,0.385627109 L6.61409586,0.385627109 L6.61409586,6.42928797 C6.61409586,6.42928797 3.37490801,11.3816946 0.11230178,17.3559318 L3.26047728,17.3559318 C5.65607119,12.4740336 8.05113286,8.98711842 8.05113286,8.98711842 C8.05113286,8.98711842 10.4467268,12.4740336 12.8417884,17.3559318 L15.9670778,17.3559318 Z" id="path36"></path> </g> <g id="g38" transform="translate(104.107210, 2.740068)" fill="#FFFFFF"> <path d="M10.6447185,8.13559302 C9.13902309,12.2966777 8.20388457,14.6446098 8.20388457,14.6446098 C8.20388457,14.6446098 7.26821381,12.2966777 5.76251837,8.13559302 L10.6447185,8.13559302 Z M13.3367678,0.510372869 C12.7204386,2.32352537 12.150414,3.973966 11.6256293,5.46169478 L4.80449371,5.46169478 C4.27970908,3.973966 3.68679826,2.32352537 3.07100129,0.510372869 L0.104850477,0.510372869 C3.82411513,11.3204065 6.49274607,17.4806775 6.49274607,17.4806775 L9.91449084,17.4806775 C9.91449084,17.4806775 12.6070724,11.3204065 16.3023864,0.510372869 L13.3367678,0.510372869 Z" id="path40"></path> </g> <g id="g42" transform="translate(123.960036, 2.825329)" fill="#FFFFFF"> <path d="M6.91906704,8.67796588 C9.0857995,8.67796588 10.2269133,9.67755908 10.2269133,11.5839997 C10.2269133,13.6298302 9.0857995,14.4900335 6.91906704,14.4900335 L3.04066385,14.4900335 L3.04066385,8.67796588 L6.91906704,8.67796588 Z M10.4552425,0.425220328 C9.47379949,2.77315247 8.44711639,4.74901683 7.85420556,5.84189816 C7.42043328,5.79525409 6.94195319,5.77247443 6.46294085,5.77247443 L3.04066385,5.77247443 L3.04066385,0.425220328 L0.188943754,0.425220328 L0.188943754,17.395525 L6.46294085,17.395525 C10.6372672,17.395525 13.0781012,15.7684064 13.0781012,11.5839997 C13.0781012,9.1194574 12.1882027,7.51511846 10.5457226,6.6326778 C11.2307103,5.42318631 12.3936458,3.30793212 13.7625566,0.425220328 L10.4552425,0.425220328 Z" id="path44"></path> </g> <g id="g46" transform="translate(142.026412, 2.902129)" fill="#FFFFFF"> <polygon id="path48" points="11.7091904 3.25423721 11.7091904 0.348745754 0.41674073 0.348745754 0.41674073 17.3190504 11.3664304 17.3190504 11.3664304 14.4130166 3.26846082 14.4130166 3.26846082 9.92650823 10.2263811 9.92650823 10.2263811 7.06657609 3.26846082 7.06657609 3.26846082 3.25423721"></polygon> </g> <g id="g50" transform="translate(158.222191, 2.865030)" fill="#FFFFFF"> <polygon id="path52" points="14.9026059 17.3559318 14.9026059 0.385627109 12.6214428 0.385627109 3.1540301 12.1952539 3.1540301 0.385627109 0.302310006 0.385627109 0.302310006 17.3559318 2.58347319 17.3559318 12.0514181 5.56962698 12.0514181 17.3559318"></polygon> </g> <g id="g54" transform="translate(176.759490, 2.740068)" fill="#FFFFFF"> <path d="M10.6447185,8.13559302 C9.13902309,12.2966777 8.20388457,14.6446098 8.20388457,14.6446098 C8.20388457,14.6446098 7.26821381,12.2966777 5.76251837,8.13559302 L10.6447185,8.13559302 Z M13.3367678,0.510372869 C12.7204386,2.32352537 12.150414,3.973966 11.6256293,5.46169478 L4.80449371,5.46169478 C4.27970908,3.973966 3.68679826,2.32352537 3.07100129,0.510372869 L0.104850477,0.510372869 C3.82411513,11.3204065 6.49274607,17.4806775 6.49274607,17.4806775 L9.91449084,17.4806775 C9.91449084,17.4806775 12.6070724,11.3204065 16.3023864,0.510372869 L13.3367678,0.510372869 Z" id="path56"></path> </g> <g id="g58" transform="translate(0.086009, 0.501153)" fill="#EE3338"> <path d="M21.2894371,9.22033875 C21.0808006,9.28162689 20.8599227,9.25613536 20.6693822,9.14874553 C20.479374,9.04135571 20.3409926,8.86454215 20.28085,8.65084724 C19.890721,7.26345745 19.1828473,5.96664392 18.2338706,4.90142361 C17.2396539,3.78522024 16.0277527,2.94888128 14.6311656,2.41735587 C12.3233906,1.53816945 9.81496272,1.62983047 7.56679816,2.67389824 C5.31863361,3.71742364 3.60536617,5.58806766 2.74261173,7.93979641 C1.88038953,10.2915252 1.96927293,12.8477285 2.99382709,15.1392539 C4.01891348,17.4302369 5.85459519,19.1755927 8.16237017,20.0553215 C12.9338652,21.872813 18.2668692,19.3952538 20.0509241,14.532881 C20.1265016,14.3251522 20.2781888,14.1597285 20.4761806,14.0680674 C20.6741723,13.9753217 20.8966469,13.9671861 21.0994288,14.0452878 C21.5204274,14.2058302 21.7349185,14.6852878 21.5779089,15.1143047 C19.4793027,20.8352537 13.2047733,23.7494231 7.59128102,21.6113893 C1.97725647,19.4728131 -0.882447166,13.0787793 1.21562686,7.35783032 C2.23060077,4.59118633 4.24617822,2.3907796 6.89085854,1.16230506 C8.33215343,0.492474564 9.86499289,0.156203386 11.4010258,0.156203386 C12.6826499,0.156203386 13.9674674,0.391050838 15.2017225,0.861288114 C16.8213165,1.47850844 18.2870942,2.48894909 19.4409817,3.78522024 C20.5576127,5.03810157 21.3894974,6.5627117 21.8482848,8.19308454 C21.9722957,8.63349131 21.7216126,9.09505062 21.2894371,9.22033875" id="path60"></path> </g> <g id="g62" transform="translate(7.733814, 5.602332)" fill="#EE3338"> <path d="M2.921443,2.25572876 C3.03959938,2.06915249 3.22162406,1.94115249 3.43505067,1.89396605 C3.64847728,1.84623724 3.86616177,1.88745758 4.04871869,2.00732198 L9.27048536,5.43620325 C9.50999153,5.59294901 9.64943734,5.85979646 9.64464722,6.14996595 C9.63932486,6.43959306 9.49083104,6.70047441 9.24706698,6.84908457 L1.69463919,11.4299658 C1.4428916,11.582915 1.12834016,11.5856268 0.874995863,11.4381014 C0.62058709,11.290576 0.463045256,11.0145082 0.463045256,10.7162031 L0.463045256,1.17694912 C0.463045256,0.71864405 0.828691337,0.346576263 1.27789846,0.346576263 C1.72763782,0.346576263 2.0932839,0.71864405 2.0932839,1.17694912 L2.0932839,9.25450824 L7.28205194,6.10711849 L3.16573929,3.40393212 C2.78785178,3.15606772 2.67821118,2.64135587 2.921443,2.25572876" id="path64"></path> </g> </g> </g> </g> </g> </g> </g> </g> </svg> 